<?xml version="1.0" encoding="utf-8"?>
<!DOCTYPE svg PUBLIC "-//W3C//DTD SVG 1.1//EN" "http://www.w3.org/Graphics/SVG/1.1/DTD/svg11.dtd">
<svg version="1.1" id="Layer_1" xmlns="http://www.w3.org/2000/svg" xmlns:xlink="http://www.w3.org/1999/xlink" x="0px" y="0px"
width="1155px" height="1155px" viewBox="0 0 1155 1155" enable-background="new 0 0 1155 1155" xml:space="preserve">
<rect x="0" y="0" width="1155" height="1155" fill="rgb(7,13,31)" /><g transform="translate(70,70)"><g transform="translate(280,0) scale(0.35,0.35)"><g transform="" style="fill: rgb(0, 229, 200);">
<rect width="100" height="100"/>
</g></g><g transform="translate(315,0) scale(0.35,0.35)"><g transform="" style="fill: rgb(0, 229, 200);">
<rect width="100" height="100"/>
</g></g><g transform="translate(385,0) scale(0.35,0.35)"><g transform="" style="fill: rgb(0, 229, 200);">
<g>
	<path d="M0,0v100h100V0c-0.65,0.651-1.596,1.465-2.832,2.441s-3.744,2.702-7.52,5.176s-7.553,4.688-11.328,6.641
		s-8.268,3.711-13.477,5.273S54.688,21.875,50,21.875s-9.603-0.749-14.746-2.246s-9.733-3.32-13.77-5.469S13.77,9.863,10.449,7.715
		S4.557,3.776,2.734,2.344L0,0z"/>
</g>
</g></g><g transform="translate(455,0) scale(0.35,0.35)"><g transform="" style="fill: rgb(0, 229, 200);">
<g>
	<path d="M0,0v100h100V0c-0.65,0.651-1.596,1.465-2.832,2.441s-3.744,2.702-7.52,5.176s-7.553,4.688-11.328,6.641
		s-8.268,3.711-13.477,5.273S54.688,21.875,50,21.875s-9.603-0.749-14.746-2.246s-9.733-3.32-13.77-5.469S13.77,9.863,10.449,7.715
		S4.557,3.776,2.734,2.344L0,0z"/>
</g>
</g></g><g transform="translate(560,0) scale(0.35,0.35)"><g transform="" style="fill: rgb(0, 229, 200);">
<g>
	<path d="M0,0v100h100V0c-0.65,0.651-1.596,1.465-2.832,2.441s-3.744,2.702-7.52,5.176s-7.553,4.688-11.328,6.641
		s-8.268,3.711-13.477,5.273S54.688,21.875,50,21.875s-9.603-0.749-14.746-2.246s-9.733-3.32-13.77-5.469S13.77,9.863,10.449,7.715
		S4.557,3.776,2.734,2.344L0,0z"/>
</g>
</g></g><g transform="translate(665,0) scale(0.35,0.35)"><g transform="" style="fill: rgb(0, 229, 200);">
<g>
	<path d="M0,100h100V0H0c0.651,0.651,1.465,1.595,2.441,2.832s2.702,3.744,5.176,7.52s4.688,7.552,6.641,11.328
		s3.711,8.268,5.273,13.477S21.875,45.312,21.875,50s-0.749,9.604-2.246,14.746s-3.32,9.732-5.469,13.77S9.863,86.23,7.715,89.551
		s-3.939,5.893-5.371,7.715L0,100z"/>
</g>
</g></g><g transform="translate(700,0) scale(0.35,0.35)"><g transform="" style="fill: rgb(0, 229, 200);">
<g>
	<path d="M100,0H0v100h100c-0.65-0.65-1.465-1.596-2.441-2.832s-2.701-3.744-5.176-7.52s-4.688-7.553-6.641-11.328
		s-3.711-8.268-5.273-13.477S78.125,54.688,78.125,50s0.748-9.603,2.246-14.746s3.32-9.733,5.469-13.77s4.297-7.715,6.445-11.035
		s3.939-5.892,5.371-7.715L100,0z"/>
</g>
</g></g><g transform="translate(280,35) scale(0.35,0.35)"><g transform="" style="fill: rgb(0, 229, 200);">
<rect width="100" height="100"/>
</g></g><g transform="translate(315,35) scale(0.35,0.35)"><g transform="" style="fill: rgb(0, 229, 200);">
<rect width="100" height="100"/>
</g></g><g transform="translate(385,35) scale(0.35,0.35)"><g transform="" style="fill: rgb(0, 229, 200);">
<rect width="100" height="100"/>
</g></g><g transform="translate(455,35) scale(0.35,0.35)"><g transform="" style="fill: rgb(0, 229, 200);">
<rect width="100" height="100"/>
</g></g><g transform="translate(560,35) scale(0.35,0.35)"><g transform="" style="fill: rgb(0, 229, 200);">
<rect width="100" height="100"/>
</g></g><g transform="translate(595,35) scale(0.35,0.35)"><g transform="" style="fill: rgb(0, 229, 200);">
<rect width="100" height="100"/>
</g></g><g transform="translate(630,35) scale(0.35,0.35)"><g transform="" style="fill: rgb(0, 229, 200);">
<g>
	<path d="M100,0H0v100h100c-0.65-0.65-1.465-1.596-2.441-2.832s-2.701-3.744-5.176-7.52s-4.688-7.553-6.641-11.328
		s-3.711-8.268-5.273-13.477S78.125,54.688,78.125,50s0.748-9.603,2.246-14.746s3.32-9.733,5.469-13.77s4.297-7.715,6.445-11.035
		s3.939-5.892,5.371-7.715L100,0z"/>
</g>
</g></g><g transform="translate(385,70) scale(0.35,0.35)"><g transform="" style="fill: rgb(0, 229, 200);">
<rect width="100" height="100"/>
</g></g><g transform="translate(420,70) scale(0.35,0.35)"><g transform="" style="fill: rgb(0, 229, 200);">
<rect width="100" height="100"/>
</g></g><g transform="translate(455,70) scale(0.35,0.35)"><g transform="" style="fill: rgb(0, 229, 200);">
<rect width="100" height="100"/>
</g></g><g transform="translate(665,70) scale(0.35,0.35)"><g transform="" style="fill: rgb(0, 229, 200);">
<g>
	<path d="M0,0v100h100V0c-0.65,0.651-1.596,1.465-2.832,2.441s-3.744,2.702-7.52,5.176s-7.553,4.688-11.328,6.641
		s-8.268,3.711-13.477,5.273S54.688,21.875,50,21.875s-9.603-0.749-14.746-2.246s-9.733-3.32-13.77-5.469S13.77,9.863,10.449,7.715
		S4.557,3.776,2.734,2.344L0,0z"/>
</g>
</g></g><g transform="translate(280,105) scale(0.35,0.35)"><g transform="" style="fill: rgb(0, 229, 200);">
<rect width="100" height="100"/>
</g></g><g transform="translate(350,105) scale(0.35,0.35)"><g transform="" style="fill: rgb(0, 229, 200);">
<rect width="100" height="100"/>
</g></g><g transform="translate(420,105) scale(0.35,0.35)"><g transform="" style="fill: rgb(0, 229, 200);">
<g>
	<path d="M100,100V0H0v100c0.651-0.65,1.595-1.465,2.832-2.441s3.744-2.701,7.52-5.176s7.552-4.688,11.328-6.641
		s8.268-3.711,13.477-5.273S45.312,78.125,50,78.125s9.604,0.748,14.746,2.246s9.732,3.32,13.77,5.469s7.715,4.297,11.035,6.445
		s5.893,3.939,7.715,5.371S100,99.869,100,100z"/>
</g>
</g></g><g transform="translate(525,105) scale(0.35,0.35)"><g transform="" style="fill: rgb(0, 229, 200);">
<g>
	<path d="M0,0v100h100V0c-0.65,0.651-1.596,1.465-2.832,2.441s-3.744,2.702-7.52,5.176s-7.553,4.688-11.328,6.641
		s-8.268,3.711-13.477,5.273S54.688,21.875,50,21.875s-9.603-0.749-14.746-2.246s-9.733-3.32-13.77-5.469S13.77,9.863,10.449,7.715
		S4.557,3.776,2.734,2.344L0,0z"/>
</g>
</g></g><g transform="translate(595,105) scale(0.35,0.35)"><g transform="" style="fill: rgb(0, 229, 200);">
<rect width="100" height="100"/>
</g></g><g transform="translate(665,105) scale(0.35,0.35)"><g transform="" style="fill: rgb(0, 229, 200);">
<rect width="100" height="100"/>
</g></g><g transform="translate(315,140) scale(0.35,0.35)"><g transform="" style="fill: rgb(0, 229, 200);">
<g>
	<path d="M0,0v100h100V0c-0.65,0.651-1.596,1.465-2.832,2.441s-3.744,2.702-7.52,5.176s-7.553,4.688-11.328,6.641
		s-8.268,3.711-13.477,5.273S54.688,21.875,50,21.875s-9.603-0.749-14.746-2.246s-9.733-3.32-13.77-5.469S13.77,9.863,10.449,7.715
		S4.557,3.776,2.734,2.344L0,0z"/>
</g>
</g></g><g transform="translate(385,140) scale(0.35,0.35)"><g transform="" style="fill: rgb(0, 229, 200);">
<g>
	<path d="M0,0v100h100V0c-0.65,0.651-1.596,1.465-2.832,2.441s-3.744,2.702-7.52,5.176s-7.553,4.688-11.328,6.641
		s-8.268,3.711-13.477,5.273S54.688,21.875,50,21.875s-9.603-0.749-14.746-2.246s-9.733-3.32-13.77-5.469S13.77,9.863,10.449,7.715
		S4.557,3.776,2.734,2.344L0,0z"/>
</g>
</g></g><g transform="translate(455,140) scale(0.35,0.35)"><g transform="" style="fill: rgb(0, 229, 200);">
<g>
	<path d="M0,100h100V0H0c0.651,0.651,1.465,1.595,2.441,2.832s2.702,3.744,5.176,7.52s4.688,7.552,6.641,11.328
		s3.711,8.268,5.273,13.477S21.875,45.312,21.875,50s-0.749,9.604-2.246,14.746s-3.32,9.732-5.469,13.77S9.863,86.23,7.715,89.551
		s-3.939,5.893-5.371,7.715L0,100z"/>
</g>
</g></g><g transform="translate(490,140) scale(0.35,0.35)"><g transform="" style="fill: rgb(0, 229, 200);">
<rect width="100" height="100"/>
</g></g><g transform="translate(525,140) scale(0.35,0.35)"><g transform="" style="fill: rgb(0, 229, 200);">
<rect width="100" height="100"/>
</g></g><g transform="translate(560,140) scale(0.35,0.35)"><g transform="" style="fill: rgb(0, 229, 200);">
<g>
	<path d="M100,0H0v100h100c-0.65-0.65-1.465-1.596-2.441-2.832s-2.701-3.744-5.176-7.52s-4.688-7.553-6.641-11.328
		s-3.711-8.268-5.273-13.477S78.125,54.688,78.125,50s0.748-9.603,2.246-14.746s3.32-9.733,5.469-13.77s4.297-7.715,6.445-11.035
		s3.939-5.892,5.371-7.715L100,0z"/>
</g>
</g></g><g transform="translate(630,140) scale(0.35,0.35)"><g transform="" style="fill: rgb(0, 229, 200);">
<g>
	<path d="M0,100h100V0H0c0.651,0.651,1.465,1.595,2.441,2.832s2.702,3.744,5.176,7.52s4.688,7.552,6.641,11.328
		s3.711,8.268,5.273,13.477S21.875,45.312,21.875,50s-0.749,9.604-2.246,14.746s-3.32,9.732-5.469,13.77S9.863,86.23,7.715,89.551
		s-3.939,5.893-5.371,7.715L0,100z"/>
</g>
</g></g><g transform="translate(665,140) scale(0.35,0.35)"><g transform="" style="fill: rgb(0, 229, 200);">
<rect width="100" height="100"/>
</g></g><g transform="translate(315,175) scale(0.35,0.35)"><g transform="" style="fill: rgb(0, 229, 200);">
<rect width="100" height="100"/>
</g></g><g transform="translate(350,175) scale(0.35,0.35)"><g transform="" style="fill: rgb(0, 229, 200);">
<rect width="100" height="100"/>
</g></g><g transform="translate(385,175) scale(0.35,0.35)"><g transform="" style="fill: rgb(0, 229, 200);">
<rect width="100" height="100"/>
</g></g><g transform="translate(420,175) scale(0.35,0.35)"><g transform="" style="fill: rgb(0, 229, 200);">
<rect width="100" height="100"/>
</g></g><g transform="translate(490,175) scale(0.35,0.35)"><g transform="" style="fill: rgb(0, 229, 200);">
<rect width="100" height="100"/>
</g></g><g transform="translate(665,175) scale(0.35,0.35)"><g transform="" style="fill: rgb(0, 229, 200);">
<g>
	<path d="M100,100V0H0v100c0.651-0.65,1.595-1.465,2.832-2.441s3.744-2.701,7.52-5.176s7.552-4.688,11.328-6.641
		s8.268-3.711,13.477-5.273S45.312,78.125,50,78.125s9.604,0.748,14.746,2.246s9.732,3.32,13.77,5.469s7.715,4.297,11.035,6.445
		s5.893,3.939,7.715,5.371S100,99.869,100,100z"/>
</g>
</g></g><g transform="translate(280,210) scale(0.35,0.35)"><g transform="" style="fill: rgb(0, 229, 200);">
<g>
	<path d="M0,0v100h100V0c-0.65,0.651-1.596,1.465-2.832,2.441s-3.744,2.702-7.52,5.176s-7.553,4.688-11.328,6.641
		s-8.268,3.711-13.477,5.273S54.688,21.875,50,21.875s-9.603-0.749-14.746-2.246s-9.733-3.32-13.77-5.469S13.77,9.863,10.449,7.715
		S4.557,3.776,2.734,2.344L0,0z"/>
</g>
</g></g><g transform="translate(350,210) scale(0.35,0.35)"><g transform="" style="fill: rgb(0, 229, 200);">
<rect width="100" height="100"/>
</g></g><g transform="translate(420,210) scale(0.35,0.35)"><g transform="" style="fill: rgb(0, 229, 200);">
<rect width="100" height="100"/>
</g></g><g transform="translate(490,210) scale(0.35,0.35)"><g transform="" style="fill: rgb(0, 229, 200);">
<rect width="100" height="100"/>
</g></g><g transform="translate(560,210) scale(0.35,0.35)"><g transform="" style="fill: rgb(0, 229, 200);">
<rect width="100" height="100"/>
</g></g><g transform="translate(630,210) scale(0.35,0.35)"><g transform="" style="fill: rgb(0, 229, 200);">
<g>
	<path d="M0,0v100h100V0c-0.65,0.651-1.596,1.465-2.832,2.441s-3.744,2.702-7.52,5.176s-7.553,4.688-11.328,6.641
		s-8.268,3.711-13.477,5.273S54.688,21.875,50,21.875s-9.603-0.749-14.746-2.246s-9.733-3.32-13.77-5.469S13.77,9.863,10.449,7.715
		S4.557,3.776,2.734,2.344L0,0z"/>
</g>
</g></g><g transform="translate(700,210) scale(0.35,0.35)"><g transform="" style="fill: rgb(0, 229, 200);">
<rect width="100" height="100"/>
</g></g><g transform="translate(280,245) scale(0.35,0.35)"><g transform="" style="fill: rgb(0, 229, 200);">
<g>
	<path d="M100,100V0H0v100c0.651-0.65,1.595-1.465,2.832-2.441s3.744-2.701,7.52-5.176s7.552-4.688,11.328-6.641
		s8.268-3.711,13.477-5.273S45.312,78.125,50,78.125s9.604,0.748,14.746,2.246s9.732,3.32,13.77,5.469s7.715,4.297,11.035,6.445
		s5.893,3.939,7.715,5.371S100,99.869,100,100z"/>
</g>
</g></g><g transform="translate(350,245) scale(0.35,0.35)"><g transform="" style="fill: rgb(0, 229, 200);">
<rect width="100" height="100"/>
</g></g><g transform="translate(385,245) scale(0.35,0.35)"><g transform="" style="fill: rgb(0, 229, 200);">
<rect width="100" height="100"/>
</g></g><g transform="translate(420,245) scale(0.35,0.35)"><g transform="" style="fill: rgb(0, 229, 200);">
<rect width="100" height="100"/>
</g></g><g transform="translate(455,245) scale(0.35,0.35)"><g transform="" style="fill: rgb(0, 229, 200);">
<rect width="100" height="100"/>
</g></g><g transform="translate(490,245) scale(0.35,0.35)"><g transform="" style="fill: rgb(0, 229, 200);">
<rect width="100" height="100"/>
</g></g><g transform="translate(525,245) scale(0.35,0.35)"><g transform="" style="fill: rgb(0, 229, 200);">
<g>
	<path d="M100,0H0v100h100c-0.65-0.65-1.465-1.596-2.441-2.832s-2.701-3.744-5.176-7.52s-4.688-7.553-6.641-11.328
		s-3.711-8.268-5.273-13.477S78.125,54.688,78.125,50s0.748-9.603,2.246-14.746s3.32-9.733,5.469-13.77s4.297-7.715,6.445-11.035
		s3.939-5.892,5.371-7.715L100,0z"/>
</g>
</g></g><g transform="translate(595,245) scale(0.35,0.35)"><g transform="" style="fill: rgb(0, 229, 200);">
<g>
	<path d="M0,100h100V0H0c0.651,0.651,1.465,1.595,2.441,2.832s2.702,3.744,5.176,7.52s4.688,7.552,6.641,11.328
		s3.711,8.268,5.273,13.477S21.875,45.312,21.875,50s-0.749,9.604-2.246,14.746s-3.32,9.732-5.469,13.77S9.863,86.23,7.715,89.551
		s-3.939,5.893-5.371,7.715L0,100z"/>
</g>
</g></g><g transform="translate(630,245) scale(0.35,0.35)"><g transform="" style="fill: rgb(0, 229, 200);">
<rect width="100" height="100"/>
</g></g><g transform="translate(665,245) scale(0.35,0.35)"><g transform="" style="fill: rgb(0, 229, 200);">
<g>
	<path d="M100,0H0v100h100c-0.65-0.65-1.465-1.596-2.441-2.832s-2.701-3.744-5.176-7.52s-4.688-7.553-6.641-11.328
		s-3.711-8.268-5.273-13.477S78.125,54.688,78.125,50s0.748-9.603,2.246-14.746s3.32-9.733,5.469-13.77s4.297-7.715,6.445-11.035
		s3.939-5.892,5.371-7.715L100,0z"/>
</g>
</g></g><g transform="translate(0,280) scale(0.35,0.35)"><g transform="" style="fill: rgb(0, 229, 200);">
<rect width="100" height="100"/>
</g></g><g transform="translate(70,280) scale(0.35,0.35)"><g transform="" style="fill: rgb(0, 229, 200);">
<g>
	<path d="M0,100h100V0H0c0.651,0.651,1.465,1.595,2.441,2.832s2.702,3.744,5.176,7.52s4.688,7.552,6.641,11.328
		s3.711,8.268,5.273,13.477S21.875,45.312,21.875,50s-0.749,9.604-2.246,14.746s-3.32,9.732-5.469,13.77S9.863,86.23,7.715,89.551
		s-3.939,5.893-5.371,7.715L0,100z"/>
</g>
</g></g><g transform="translate(105,280) scale(0.35,0.35)"><g transform="" style="fill: rgb(0, 229, 200);">
<rect width="100" height="100"/>
</g></g><g transform="translate(175,280) scale(0.35,0.35)"><g transform="" style="fill: rgb(0, 229, 200);">
<rect width="100" height="100"/>
</g></g><g transform="translate(210,280) scale(0.35,0.35)"><g transform="" style="fill: rgb(0, 229, 200);">
<rect width="100" height="100"/>
</g></g><g transform="translate(245,280) scale(0.35,0.35)"><g transform="" style="fill: rgb(0, 229, 200);">
<rect width="100" height="100"/>
</g></g><g transform="translate(385,280) scale(0.35,0.35)"><g transform="" style="fill: rgb(0, 229, 200);">
<rect width="100" height="100"/>
</g></g><g transform="translate(420,280) scale(0.35,0.35)"><g transform="" style="fill: rgb(0, 229, 200);">
<rect width="100" height="100"/>
</g></g><g transform="translate(455,280) scale(0.35,0.35)"><g transform="" style="fill: rgb(0, 229, 200);">
<rect width="100" height="100"/>
</g></g><g transform="translate(490,280) scale(0.35,0.35)"><g transform="" style="fill: rgb(0, 229, 200);">
<rect width="100" height="100"/>
</g></g><g transform="translate(630,280) scale(0.35,0.35)"><g transform="" style="fill: rgb(0, 229, 200);">
<rect width="100" height="100"/>
</g></g><g transform="translate(770,280) scale(0.35,0.35)"><g transform="" style="fill: rgb(0, 229, 200);">
<g>
	<path d="M0,0v100h100V0c-0.65,0.651-1.596,1.465-2.832,2.441s-3.744,2.702-7.52,5.176s-7.553,4.688-11.328,6.641
		s-8.268,3.711-13.477,5.273S54.688,21.875,50,21.875s-9.603-0.749-14.746-2.246s-9.733-3.32-13.77-5.469S13.77,9.863,10.449,7.715
		S4.557,3.776,2.734,2.344L0,0z"/>
</g>
</g></g><g transform="translate(875,280) scale(0.35,0.35)"><g transform="" style="fill: rgb(0, 229, 200);">
<rect width="100" height="100"/>
</g></g><g transform="translate(945,280) scale(0.35,0.35)"><g transform="" style="fill: rgb(0, 229, 200);">
<g>
	<path d="M0,100h100V0H0c0.651,0.651,1.465,1.595,2.441,2.832s2.702,3.744,5.176,7.52s4.688,7.552,6.641,11.328
		s3.711,8.268,5.273,13.477S21.875,45.312,21.875,50s-0.749,9.604-2.246,14.746s-3.32,9.732-5.469,13.77S9.863,86.23,7.715,89.551
		s-3.939,5.893-5.371,7.715L0,100z"/>
</g>
</g></g><g transform="translate(980,280) scale(0.35,0.35)"><g transform="" style="fill: rgb(0, 229, 200);">
<rect width="100" height="100"/>
</g></g><g transform="translate(105,315) scale(0.35,0.35)"><g transform="" style="fill: rgb(0, 229, 200);">
<rect width="100" height="100"/>
</g></g><g transform="translate(140,315) scale(0.35,0.35)"><g transform="" style="fill: rgb(0, 229, 200);">
<rect width="100" height="100"/>
</g></g><g transform="translate(175,315) scale(0.35,0.35)"><g transform="" style="fill: rgb(0, 229, 200);">
<rect width="100" height="100"/>
</g></g><g transform="translate(245,315) scale(0.35,0.35)"><g transform="" style="fill: rgb(0, 229, 200);">
<rect width="100" height="100"/>
</g></g><g transform="translate(280,315) scale(0.35,0.35)"><g transform="" style="fill: rgb(0, 229, 200);">
<rect width="100" height="100"/>
</g></g><g transform="translate(385,315) scale(0.35,0.35)"><g transform="" style="fill: rgb(0, 229, 200);">
<g>
	<path d="M100,100V0H0v100c0.651-0.65,1.595-1.465,2.832-2.441s3.744-2.701,7.52-5.176s7.552-4.688,11.328-6.641
		s8.268-3.711,13.477-5.273S45.312,78.125,50,78.125s9.604,0.748,14.746,2.246s9.732,3.32,13.77,5.469s7.715,4.297,11.035,6.445
		s5.893,3.939,7.715,5.371S100,99.869,100,100z"/>
</g>
</g></g><g transform="translate(560,315) scale(0.35,0.35)"><g transform="" style="fill: rgb(0, 229, 200);">
<g>
	<path d="M0,100h100V0H0c0.651,0.651,1.465,1.595,2.441,2.832s2.702,3.744,5.176,7.52s4.688,7.552,6.641,11.328
		s3.711,8.268,5.273,13.477S21.875,45.312,21.875,50s-0.749,9.604-2.246,14.746s-3.32,9.732-5.469,13.77S9.863,86.23,7.715,89.551
		s-3.939,5.893-5.371,7.715L0,100z"/>
</g>
</g></g><g transform="translate(595,315) scale(0.35,0.35)"><g transform="" style="fill: rgb(0, 229, 200);">
<rect width="100" height="100"/>
</g></g><g transform="translate(630,315) scale(0.35,0.35)"><g transform="" style="fill: rgb(0, 229, 200);">
<rect width="100" height="100"/>
</g></g><g transform="translate(665,315) scale(0.35,0.35)"><g transform="" style="fill: rgb(0, 229, 200);">
<rect width="100" height="100"/>
</g></g><g transform="translate(700,315) scale(0.35,0.35)"><g transform="" style="fill: rgb(0, 229, 200);">
<rect width="100" height="100"/>
</g></g><g transform="translate(735,315) scale(0.35,0.35)"><g transform="" style="fill: rgb(0, 229, 200);">
<rect width="100" height="100"/>
</g></g><g transform="translate(770,315) scale(0.35,0.35)"><g transform="" style="fill: rgb(0, 229, 200);">
<rect width="100" height="100"/>
</g></g><g transform="translate(840,315) scale(0.35,0.35)"><g transform="" style="fill: rgb(0, 229, 200);">
<rect width="100" height="100"/>
</g></g><g transform="translate(980,315) scale(0.35,0.35)"><g transform="" style="fill: rgb(0, 229, 200);">
<g>
	<path d="M100,100V0H0v100c0.651-0.65,1.595-1.465,2.832-2.441s3.744-2.701,7.52-5.176s7.552-4.688,11.328-6.641
		s8.268-3.711,13.477-5.273S45.312,78.125,50,78.125s9.604,0.748,14.746,2.246s9.732,3.32,13.77,5.469s7.715,4.297,11.035,6.445
		s5.893,3.939,7.715,5.371S100,99.869,100,100z"/>
</g>
</g></g><g transform="translate(0,350) scale(0.35,0.35)"><g transform="" style="fill: rgb(0, 229, 200);">
<rect width="100" height="100"/>
</g></g><g transform="translate(105,350) scale(0.35,0.35)"><g transform="" style="fill: rgb(0, 229, 200);">
<g>
	<path d="M100,100V0H0v100c0.651-0.65,1.595-1.465,2.832-2.441s3.744-2.701,7.52-5.176s7.552-4.688,11.328-6.641
		s8.268-3.711,13.477-5.273S45.312,78.125,50,78.125s9.604,0.748,14.746,2.246s9.732,3.32,13.77,5.469s7.715,4.297,11.035,6.445
		s5.893,3.939,7.715,5.371S100,99.869,100,100z"/>
</g>
</g></g><g transform="translate(210,350) scale(0.35,0.35)"><g transform="" style="fill: rgb(0, 229, 200);">
<g>
	<path d="M0,100h100V0H0c0.651,0.651,1.465,1.595,2.441,2.832s2.702,3.744,5.176,7.52s4.688,7.552,6.641,11.328
		s3.711,8.268,5.273,13.477S21.875,45.312,21.875,50s-0.749,9.604-2.246,14.746s-3.32,9.732-5.469,13.77S9.863,86.23,7.715,89.551
		s-3.939,5.893-5.371,7.715L0,100z"/>
</g>
</g></g><g transform="translate(245,350) scale(0.35,0.35)"><g transform="" style="fill: rgb(0, 229, 200);">
<rect width="100" height="100"/>
</g></g><g transform="translate(280,350) scale(0.35,0.35)"><g transform="" style="fill: rgb(0, 229, 200);">
<rect width="100" height="100"/>
</g></g><g transform="translate(315,350) scale(0.35,0.35)"><g transform="" style="fill: rgb(0, 229, 200);">
<rect width="100" height="100"/>
</g></g><g transform="translate(490,350) scale(0.35,0.35)"><g transform="" style="fill: rgb(0, 229, 200);">
<g>
	<path d="M0,0v100h100V0c-0.65,0.651-1.596,1.465-2.832,2.441s-3.744,2.702-7.52,5.176s-7.553,4.688-11.328,6.641
		s-8.268,3.711-13.477,5.273S54.688,21.875,50,21.875s-9.603-0.749-14.746-2.246s-9.733-3.32-13.77-5.469S13.77,9.863,10.449,7.715
		S4.557,3.776,2.734,2.344L0,0z"/>
</g>
</g></g><g transform="translate(630,350) scale(0.35,0.35)"><g transform="" style="fill: rgb(0, 229, 200);">
<g>
	<path d="M100,100V0H0v100c0.651-0.65,1.595-1.465,2.832-2.441s3.744-2.701,7.52-5.176s7.552-4.688,11.328-6.641
		s8.268-3.711,13.477-5.273S45.312,78.125,50,78.125s9.604,0.748,14.746,2.246s9.732,3.32,13.77,5.469s7.715,4.297,11.035,6.445
		s5.893,3.939,7.715,5.371S100,99.869,100,100z"/>
</g>
</g></g><g transform="translate(735,350) scale(0.35,0.35)"><g transform="" style="fill: rgb(0, 229, 200);">
<rect width="100" height="100"/>
</g></g><g transform="translate(770,350) scale(0.35,0.35)"><g transform="" style="fill: rgb(0, 229, 200);">
<rect width="100" height="100"/>
</g></g><g transform="translate(910,350) scale(0.35,0.35)"><g transform="" style="fill: rgb(0, 229, 200);">
<g>
	<path d="M0,100h100V0H0c0.651,0.651,1.465,1.595,2.441,2.832s2.702,3.744,5.176,7.52s4.688,7.552,6.641,11.328
		s3.711,8.268,5.273,13.477S21.875,45.312,21.875,50s-0.749,9.604-2.246,14.746s-3.32,9.732-5.469,13.77S9.863,86.23,7.715,89.551
		s-3.939,5.893-5.371,7.715L0,100z"/>
</g>
</g></g><g transform="translate(945,350) scale(0.35,0.35)"><g transform="" style="fill: rgb(0, 229, 200);">
<g>
	<path d="M100,0H0v100h100c-0.65-0.65-1.465-1.596-2.441-2.832s-2.701-3.744-5.176-7.52s-4.688-7.553-6.641-11.328
		s-3.711-8.268-5.273-13.477S78.125,54.688,78.125,50s0.748-9.603,2.246-14.746s3.32-9.733,5.469-13.77s4.297-7.715,6.445-11.035
		s3.939-5.892,5.371-7.715L100,0z"/>
</g>
</g></g><g transform="translate(35,385) scale(0.35,0.35)"><g transform="" style="fill: rgb(0, 229, 200);">
<g>
	<path d="M0,100h100V0H0c0.651,0.651,1.465,1.595,2.441,2.832s2.702,3.744,5.176,7.52s4.688,7.552,6.641,11.328
		s3.711,8.268,5.273,13.477S21.875,45.312,21.875,50s-0.749,9.604-2.246,14.746s-3.32,9.732-5.469,13.77S9.863,86.23,7.715,89.551
		s-3.939,5.893-5.371,7.715L0,100z"/>
</g>
</g></g><g transform="translate(70,385) scale(0.35,0.35)"><g transform="" style="fill: rgb(0, 229, 200);">
<g>
	<path d="M100,0H0v100h100c-0.65-0.65-1.465-1.596-2.441-2.832s-2.701-3.744-5.176-7.52s-4.688-7.553-6.641-11.328
		s-3.711-8.268-5.273-13.477S78.125,54.688,78.125,50s0.748-9.603,2.246-14.746s3.32-9.733,5.469-13.77s4.297-7.715,6.445-11.035
		s3.939-5.892,5.371-7.715L100,0z"/>
</g>
</g></g><g transform="translate(175,385) scale(0.35,0.35)"><g transform="" style="fill: rgb(0, 229, 200);">
<g>
	<path d="M0,0v100h100V0c-0.65,0.651-1.596,1.465-2.832,2.441s-3.744,2.702-7.52,5.176s-7.553,4.688-11.328,6.641
		s-8.268,3.711-13.477,5.273S54.688,21.875,50,21.875s-9.603-0.749-14.746-2.246s-9.733-3.32-13.77-5.469S13.77,9.863,10.449,7.715
		S4.557,3.776,2.734,2.344L0,0z"/>
</g>
</g></g><g transform="translate(245,385) scale(0.35,0.35)"><g transform="" style="fill: rgb(0, 229, 200);">
<rect width="100" height="100"/>
</g></g><g transform="translate(280,385) scale(0.35,0.35)"><g transform="" style="fill: rgb(0, 229, 200);">
<rect width="100" height="100"/>
</g></g><g transform="translate(315,385) scale(0.35,0.35)"><g transform="" style="fill: rgb(0, 229, 200);">
<rect width="100" height="100"/>
</g></g><g transform="translate(350,385) scale(0.35,0.35)"><g transform="" style="fill: rgb(0, 229, 200);">
<g>
	<path d="M100,0H0v100h100c-0.65-0.65-1.465-1.596-2.441-2.832s-2.701-3.744-5.176-7.52s-4.688-7.553-6.641-11.328
		s-3.711-8.268-5.273-13.477S78.125,54.688,78.125,50s0.748-9.603,2.246-14.746s3.32-9.733,5.469-13.77s4.297-7.715,6.445-11.035
		s3.939-5.892,5.371-7.715L100,0z"/>
</g>
</g></g><g transform="translate(420,385) scale(0.35,0.35)"><g transform="" style="fill: rgb(0, 229, 200);">
<rect width="100" height="100"/>
</g></g><g transform="translate(455,385) scale(0.35,0.35)"><g transform="" style="fill: rgb(0, 229, 200);">
<rect width="100" height="100"/>
</g></g><g transform="translate(490,385) scale(0.35,0.35)"><g transform="" style="fill: rgb(0, 229, 200);">
<rect width="100" height="100"/>
</g></g><g transform="translate(560,385) scale(0.35,0.35)"><g transform="" style="fill: rgb(0, 229, 200);">
<rect width="100" height="100"/>
</g></g><g transform="translate(665,385) scale(0.35,0.35)"><g transform="" style="fill: rgb(0, 229, 200);">
<g>
	<path d="M0,100h100V0H0c0.651,0.651,1.465,1.595,2.441,2.832s2.702,3.744,5.176,7.52s4.688,7.552,6.641,11.328
		s3.711,8.268,5.273,13.477S21.875,45.312,21.875,50s-0.749,9.604-2.246,14.746s-3.32,9.732-5.469,13.77S9.863,86.23,7.715,89.551
		s-3.939,5.893-5.371,7.715L0,100z"/>
</g>
</g></g><g transform="translate(700,385) scale(0.35,0.35)"><g transform="" style="fill: rgb(0, 229, 200);">
<rect width="100" height="100"/>
</g></g><g transform="translate(735,385) scale(0.35,0.35)"><g transform="" style="fill: rgb(0, 229, 200);">
<rect width="100" height="100"/>
</g></g><g transform="translate(805,385) scale(0.35,0.35)"><g transform="" style="fill: rgb(0, 229, 200);">
<rect width="100" height="100"/>
</g></g><g transform="translate(980,385) scale(0.35,0.35)"><g transform="" style="fill: rgb(0, 229, 200);">
<rect width="100" height="100"/>
</g></g><g transform="translate(105,420) scale(0.35,0.35)"><g transform="" style="fill: rgb(0, 229, 200);">
<g>
	<path d="M0,0v100h100V0c-0.65,0.651-1.596,1.465-2.832,2.441s-3.744,2.702-7.52,5.176s-7.553,4.688-11.328,6.641
		s-8.268,3.711-13.477,5.273S54.688,21.875,50,21.875s-9.603-0.749-14.746-2.246s-9.733-3.32-13.77-5.469S13.77,9.863,10.449,7.715
		S4.557,3.776,2.734,2.344L0,0z"/>
</g>
</g></g><g transform="translate(175,420) scale(0.35,0.35)"><g transform="" style="fill: rgb(0, 229, 200);">
<rect width="100" height="100"/>
</g></g><g transform="translate(210,420) scale(0.35,0.35)"><g transform="" style="fill: rgb(0, 229, 200);">
<rect width="100" height="100"/>
</g></g><g transform="translate(245,420) scale(0.35,0.35)"><g transform="" style="fill: rgb(0, 229, 200);">
<rect width="100" height="100"/>
</g></g><g transform="translate(280,420) scale(0.35,0.35)"><g transform="" style="fill: rgb(0, 229, 200);">
<rect width="100" height="100"/>
</g></g><g transform="translate(315,420) scale(0.35,0.35)"><g transform="" style="fill: rgb(0, 229, 200);">
<rect width="100" height="100"/>
</g></g><g transform="translate(385,420) scale(0.35,0.35)"><g transform="" style="fill: rgb(0, 229, 200);">
<rect width="100" height="100"/>
</g></g><g transform="translate(420,420) scale(0.35,0.35)"><g transform="" style="fill: rgb(0, 229, 200);">
<rect width="100" height="100"/>
</g></g><g transform="translate(595,420) scale(0.35,0.35)"><g transform="" style="fill: rgb(0, 229, 200);">
<rect width="100" height="100"/>
</g></g><g transform="translate(700,420) scale(0.35,0.35)"><g transform="" style="fill: rgb(0, 229, 200);">
<g>
	<path d="M100,100V0H0v100c0.651-0.65,1.595-1.465,2.832-2.441s3.744-2.701,7.52-5.176s7.552-4.688,11.328-6.641
		s8.268-3.711,13.477-5.273S45.312,78.125,50,78.125s9.604,0.748,14.746,2.246s9.732,3.32,13.77,5.469s7.715,4.297,11.035,6.445
		s5.893,3.939,7.715,5.371S100,99.869,100,100z"/>
</g>
</g></g><g transform="translate(875,420) scale(0.35,0.35)"><g transform="" style="fill: rgb(0, 229, 200);">
<g>
	<path d="M0,100h100V0H0c0.651,0.651,1.465,1.595,2.441,2.832s2.702,3.744,5.176,7.52s4.688,7.552,6.641,11.328
		s3.711,8.268,5.273,13.477S21.875,45.312,21.875,50s-0.749,9.604-2.246,14.746s-3.32,9.732-5.469,13.77S9.863,86.23,7.715,89.551
		s-3.939,5.893-5.371,7.715L0,100z"/>
</g>
</g></g><g transform="translate(910,420) scale(0.35,0.35)"><g transform="" style="fill: rgb(0, 229, 200);">
<rect width="100" height="100"/>
</g></g><g transform="translate(70,455) scale(0.35,0.35)"><g transform="" style="fill: rgb(0, 229, 200);">
<rect width="100" height="100"/>
</g></g><g transform="translate(105,455) scale(0.35,0.35)"><g transform="" style="fill: rgb(0, 229, 200);">
<rect width="100" height="100"/>
</g></g><g transform="translate(140,455) scale(0.35,0.35)"><g transform="" style="fill: rgb(0, 229, 200);">
<g>
	<path d="M100,0H0v100h100c-0.65-0.65-1.465-1.596-2.441-2.832s-2.701-3.744-5.176-7.52s-4.688-7.553-6.641-11.328
		s-3.711-8.268-5.273-13.477S78.125,54.688,78.125,50s0.748-9.603,2.246-14.746s3.32-9.733,5.469-13.77s4.297-7.715,6.445-11.035
		s3.939-5.892,5.371-7.715L100,0z"/>
</g>
</g></g><g transform="translate(385,455) scale(0.35,0.35)"><g transform="" style="fill: rgb(0, 229, 200);">
<rect width="100" height="100"/>
</g></g><g transform="translate(420,455) scale(0.35,0.35)"><g transform="" style="fill: rgb(0, 229, 200);">
<rect width="100" height="100"/>
</g></g><g transform="translate(455,455) scale(0.35,0.35)"><g transform="" style="fill: rgb(0, 229, 200);">
<g>
	<path d="M100,0H0v100h100c-0.65-0.65-1.465-1.596-2.441-2.832s-2.701-3.744-5.176-7.52s-4.688-7.553-6.641-11.328
		s-3.711-8.268-5.273-13.477S78.125,54.688,78.125,50s0.748-9.603,2.246-14.746s3.32-9.733,5.469-13.77s4.297-7.715,6.445-11.035
		s3.939-5.892,5.371-7.715L100,0z"/>
</g>
</g></g><g transform="translate(525,455) scale(0.35,0.35)"><g transform="" style="fill: rgb(0, 229, 200);">
<g>
	<path d="M0,100h100V0H0c0.651,0.651,1.465,1.595,2.441,2.832s2.702,3.744,5.176,7.52s4.688,7.552,6.641,11.328
		s3.711,8.268,5.273,13.477S21.875,45.312,21.875,50s-0.749,9.604-2.246,14.746s-3.32,9.732-5.469,13.77S9.863,86.23,7.715,89.551
		s-3.939,5.893-5.371,7.715L0,100z"/>
</g>
</g></g><g transform="translate(560,455) scale(0.35,0.35)"><g transform="" style="fill: rgb(0, 229, 200);">
<g>
	<path d="M100,0H0v100h100c-0.65-0.65-1.465-1.596-2.441-2.832s-2.701-3.744-5.176-7.52s-4.688-7.553-6.641-11.328
		s-3.711-8.268-5.273-13.477S78.125,54.688,78.125,50s0.748-9.603,2.246-14.746s3.32-9.733,5.469-13.77s4.297-7.715,6.445-11.035
		s3.939-5.892,5.371-7.715L100,0z"/>
</g>
</g></g><g transform="translate(665,455) scale(0.35,0.35)"><g transform="" style="fill: rgb(0, 229, 200);">
<g>
	<path d="M0,0v100h100V0c-0.65,0.651-1.596,1.465-2.832,2.441s-3.744,2.702-7.52,5.176s-7.553,4.688-11.328,6.641
		s-8.268,3.711-13.477,5.273S54.688,21.875,50,21.875s-9.603-0.749-14.746-2.246s-9.733-3.32-13.77-5.469S13.77,9.863,10.449,7.715
		S4.557,3.776,2.734,2.344L0,0z"/>
</g>
</g></g><g transform="translate(910,455) scale(0.35,0.35)"><g transform="" style="fill: rgb(0, 229, 200);">
<rect width="100" height="100"/>
</g></g><g transform="translate(945,455) scale(0.35,0.35)"><g transform="" style="fill: rgb(0, 229, 200);">
<rect width="100" height="100"/>
</g></g><g transform="translate(980,455) scale(0.35,0.35)"><g transform="" style="fill: rgb(0, 229, 200);">
<rect width="100" height="100"/>
</g></g><g transform="translate(70,490) scale(0.35,0.35)"><g transform="" style="fill: rgb(0, 229, 200);">
<g>
	<path d="M100,100V0H0v100c0.651-0.65,1.595-1.465,2.832-2.441s3.744-2.701,7.52-5.176s7.552-4.688,11.328-6.641
		s8.268-3.711,13.477-5.273S45.312,78.125,50,78.125s9.604,0.748,14.746,2.246s9.732,3.32,13.77,5.469s7.715,4.297,11.035,6.445
		s5.893,3.939,7.715,5.371S100,99.869,100,100z"/>
</g>
</g></g><g transform="translate(210,490) scale(0.35,0.35)"><g transform="" style="fill: rgb(0, 229, 200);">
<rect width="100" height="100"/>
</g></g><g transform="translate(385,490) scale(0.35,0.35)"><g transform="" style="fill: rgb(0, 229, 200);">
<rect width="100" height="100"/>
</g></g><g transform="translate(420,490) scale(0.35,0.35)"><g transform="" style="fill: rgb(0, 229, 200);">
<rect width="100" height="100"/>
</g></g><g transform="translate(490,490) scale(0.35,0.35)"><g transform="" style="fill: rgb(0, 229, 200);">
<rect width="100" height="100"/>
</g></g><g transform="translate(665,490) scale(0.35,0.35)"><g transform="" style="fill: rgb(0, 229, 200);">
<rect width="100" height="100"/>
</g></g><g transform="translate(700,490) scale(0.35,0.35)"><g transform="" style="fill: rgb(0, 229, 200);">
<rect width="100" height="100"/>
</g></g><g transform="translate(770,490) scale(0.35,0.35)"><g transform="" style="fill: rgb(0, 229, 200);">
<g>
	<path d="M0,100h100V0H0c0.651,0.651,1.465,1.595,2.441,2.832s2.702,3.744,5.176,7.52s4.688,7.552,6.641,11.328
		s3.711,8.268,5.273,13.477S21.875,45.312,21.875,50s-0.749,9.604-2.246,14.746s-3.32,9.732-5.469,13.77S9.863,86.23,7.715,89.551
		s-3.939,5.893-5.371,7.715L0,100z"/>
</g>
</g></g><g transform="translate(805,490) scale(0.35,0.35)"><g transform="" style="fill: rgb(0, 229, 200);">
<rect width="100" height="100"/>
</g></g><g transform="translate(910,490) scale(0.35,0.35)"><g transform="" style="fill: rgb(0, 229, 200);">
<rect width="100" height="100"/>
</g></g><g transform="translate(945,490) scale(0.35,0.35)"><g transform="" style="fill: rgb(0, 229, 200);">
<rect width="100" height="100"/>
</g></g><g transform="translate(980,490) scale(0.35,0.35)"><g transform="" style="fill: rgb(0, 229, 200);">
<rect width="100" height="100"/>
</g></g><g transform="translate(0,525) scale(0.35,0.35)"><g transform="" style="fill: rgb(0, 229, 200);">
<rect width="100" height="100"/>
</g></g><g transform="translate(35,525) scale(0.35,0.35)"><g transform="" style="fill: rgb(0, 229, 200);">
<rect width="100" height="100"/>
</g></g><g transform="translate(315,525) scale(0.35,0.35)"><g transform="" style="fill: rgb(0, 229, 200);">
<g>
	<path d="M0,0v100h100V0c-0.65,0.651-1.596,1.465-2.832,2.441s-3.744,2.702-7.52,5.176s-7.553,4.688-11.328,6.641
		s-8.268,3.711-13.477,5.273S54.688,21.875,50,21.875s-9.603-0.749-14.746-2.246s-9.733-3.32-13.77-5.469S13.77,9.863,10.449,7.715
		S4.557,3.776,2.734,2.344L0,0z"/>
</g>
</g></g><g transform="translate(455,525) scale(0.35,0.35)"><g transform="" style="fill: rgb(0, 229, 200);">
<rect width="100" height="100"/>
</g></g><g transform="translate(700,525) scale(0.35,0.35)"><g transform="" style="fill: rgb(0, 229, 200);">
<rect width="100" height="100"/>
</g></g><g transform="translate(805,525) scale(0.35,0.35)"><g transform="" style="fill: rgb(0, 229, 200);">
<rect width="100" height="100"/>
</g></g><g transform="translate(945,525) scale(0.35,0.35)"><g transform="" style="fill: rgb(0, 229, 200);">
<rect width="100" height="100"/>
</g></g><g transform="translate(0,560) scale(0.35,0.35)"><g transform="" style="fill: rgb(0, 229, 200);">
<rect width="100" height="100"/>
</g></g><g transform="translate(35,560) scale(0.35,0.35)"><g transform="" style="fill: rgb(0, 229, 200);">
<rect width="100" height="100"/>
</g></g><g transform="translate(140,560) scale(0.35,0.35)"><g transform="" style="fill: rgb(0, 229, 200);">
<g>
	<path d="M0,0v100h100V0c-0.65,0.651-1.596,1.465-2.832,2.441s-3.744,2.702-7.52,5.176s-7.553,4.688-11.328,6.641
		s-8.268,3.711-13.477,5.273S54.688,21.875,50,21.875s-9.603-0.749-14.746-2.246s-9.733-3.32-13.77-5.469S13.77,9.863,10.449,7.715
		S4.557,3.776,2.734,2.344L0,0z"/>
</g>
</g></g><g transform="translate(210,560) scale(0.35,0.35)"><g transform="" style="fill: rgb(0, 229, 200);">
<rect width="100" height="100"/>
</g></g><g transform="translate(315,560) scale(0.35,0.35)"><g transform="" style="fill: rgb(0, 229, 200);">
<rect width="100" height="100"/>
</g></g><g transform="translate(385,560) scale(0.35,0.35)"><g transform="" style="fill: rgb(0, 229, 200);">
<g>
	<path d="M0,100h100V0H0c0.651,0.651,1.465,1.595,2.441,2.832s2.702,3.744,5.176,7.52s4.688,7.552,6.641,11.328
		s3.711,8.268,5.273,13.477S21.875,45.312,21.875,50s-0.749,9.604-2.246,14.746s-3.32,9.732-5.469,13.77S9.863,86.23,7.715,89.551
		s-3.939,5.893-5.371,7.715L0,100z"/>
</g>
</g></g><g transform="translate(420,560) scale(0.35,0.35)"><g transform="" style="fill: rgb(0, 229, 200);">
<g>
	<path d="M100,0H0v100h100c-0.65-0.65-1.465-1.596-2.441-2.832s-2.701-3.744-5.176-7.52s-4.688-7.553-6.641-11.328
		s-3.711-8.268-5.273-13.477S78.125,54.688,78.125,50s0.748-9.603,2.246-14.746s3.32-9.733,5.469-13.77s4.297-7.715,6.445-11.035
		s3.939-5.892,5.371-7.715L100,0z"/>
</g>
</g></g><g transform="translate(630,560) scale(0.35,0.35)"><g transform="" style="fill: rgb(0, 229, 200);">
<g>
	<path d="M0,100h100V0H0c0.651,0.651,1.465,1.595,2.441,2.832s2.702,3.744,5.176,7.52s4.688,7.552,6.641,11.328
		s3.711,8.268,5.273,13.477S21.875,45.312,21.875,50s-0.749,9.604-2.246,14.746s-3.32,9.732-5.469,13.77S9.863,86.23,7.715,89.551
		s-3.939,5.893-5.371,7.715L0,100z"/>
</g>
</g></g><g transform="translate(665,560) scale(0.35,0.35)"><g transform="" style="fill: rgb(0, 229, 200);">
<rect width="100" height="100"/>
</g></g><g transform="translate(700,560) scale(0.35,0.35)"><g transform="" style="fill: rgb(0, 229, 200);">
<rect width="100" height="100"/>
</g></g><g transform="translate(735,560) scale(0.35,0.35)"><g transform="" style="fill: rgb(0, 229, 200);">
<g>
	<path d="M100,0H0v100h100c-0.65-0.65-1.465-1.596-2.441-2.832s-2.701-3.744-5.176-7.52s-4.688-7.553-6.641-11.328
		s-3.711-8.268-5.273-13.477S78.125,54.688,78.125,50s0.748-9.603,2.246-14.746s3.32-9.733,5.469-13.77s4.297-7.715,6.445-11.035
		s3.939-5.892,5.371-7.715L100,0z"/>
</g>
</g></g><g transform="translate(805,560) scale(0.35,0.35)"><g transform="" style="fill: rgb(0, 229, 200);">
<rect width="100" height="100"/>
</g></g><g transform="translate(840,560) scale(0.35,0.35)"><g transform="" style="fill: rgb(0, 229, 200);">
<rect width="100" height="100"/>
</g></g><g transform="translate(875,560) scale(0.35,0.35)"><g transform="" style="fill: rgb(0, 229, 200);">
<rect width="100" height="100"/>
</g></g><g transform="translate(945,560) scale(0.35,0.35)"><g transform="" style="fill: rgb(0, 229, 200);">
<rect width="100" height="100"/>
</g></g><g transform="translate(35,595) scale(0.35,0.35)"><g transform="" style="fill: rgb(0, 229, 200);">
<g>
	<path d="M100,100V0H0v100c0.651-0.65,1.595-1.465,2.832-2.441s3.744-2.701,7.52-5.176s7.552-4.688,11.328-6.641
		s8.268-3.711,13.477-5.273S45.312,78.125,50,78.125s9.604,0.748,14.746,2.246s9.732,3.32,13.77,5.469s7.715,4.297,11.035,6.445
		s5.893,3.939,7.715,5.371S100,99.869,100,100z"/>
</g>
</g></g><g transform="translate(105,595) scale(0.35,0.35)"><g transform="" style="fill: rgb(0, 229, 200);">
<g>
	<path d="M0,100h100V0H0c0.651,0.651,1.465,1.595,2.441,2.832s2.702,3.744,5.176,7.52s4.688,7.552,6.641,11.328
		s3.711,8.268,5.273,13.477S21.875,45.312,21.875,50s-0.749,9.604-2.246,14.746s-3.32,9.732-5.469,13.77S9.863,86.23,7.715,89.551
		s-3.939,5.893-5.371,7.715L0,100z"/>
</g>
</g></g><g transform="translate(140,595) scale(0.35,0.35)"><g transform="" style="fill: rgb(0, 229, 200);">
<rect width="100" height="100"/>
</g></g><g transform="translate(175,595) scale(0.35,0.35)"><g transform="" style="fill: rgb(0, 229, 200);">
<rect width="100" height="100"/>
</g></g><g transform="translate(245,595) scale(0.35,0.35)"><g transform="" style="fill: rgb(0, 229, 200);">
<rect width="100" height="100"/>
</g></g><g transform="translate(315,595) scale(0.35,0.35)"><g transform="" style="fill: rgb(0, 229, 200);">
<g>
	<path d="M100,100V0H0v100c0.651-0.65,1.595-1.465,2.832-2.441s3.744-2.701,7.52-5.176s7.552-4.688,11.328-6.641
		s8.268-3.711,13.477-5.273S45.312,78.125,50,78.125s9.604,0.748,14.746,2.246s9.732,3.32,13.77,5.469s7.715,4.297,11.035,6.445
		s5.893,3.939,7.715,5.371S100,99.869,100,100z"/>
</g>
</g></g><g transform="translate(455,595) scale(0.35,0.35)"><g transform="" style="fill: rgb(0, 229, 200);">
<rect width="100" height="100"/>
</g></g><g transform="translate(525,595) scale(0.35,0.35)"><g transform="" style="fill: rgb(0, 229, 200);">
<g>
	<path d="M0,0v100h100V0c-0.65,0.651-1.596,1.465-2.832,2.441s-3.744,2.702-7.52,5.176s-7.553,4.688-11.328,6.641
		s-8.268,3.711-13.477,5.273S54.688,21.875,50,21.875s-9.603-0.749-14.746-2.246s-9.733-3.32-13.77-5.469S13.77,9.863,10.449,7.715
		S4.557,3.776,2.734,2.344L0,0z"/>
</g>
</g></g><g transform="translate(700,595) scale(0.35,0.35)"><g transform="" style="fill: rgb(0, 229, 200);">
<rect width="100" height="100"/>
</g></g><g transform="translate(770,595) scale(0.35,0.35)"><g transform="" style="fill: rgb(0, 229, 200);">
<rect width="100" height="100"/>
</g></g><g transform="translate(805,595) scale(0.35,0.35)"><g transform="" style="fill: rgb(0, 229, 200);">
<rect width="100" height="100"/>
</g></g><g transform="translate(875,595) scale(0.35,0.35)"><g transform="" style="fill: rgb(0, 229, 200);">
<rect width="100" height="100"/>
</g></g><g transform="translate(910,595) scale(0.35,0.35)"><g transform="" style="fill: rgb(0, 229, 200);">
<rect width="100" height="100"/>
</g></g><g transform="translate(945,595) scale(0.35,0.35)"><g transform="" style="fill: rgb(0, 229, 200);">
<rect width="100" height="100"/>
</g></g><g transform="translate(0,630) scale(0.35,0.35)"><g transform="" style="fill: rgb(0, 229, 200);">
<rect width="100" height="100"/>
</g></g><g transform="translate(70,630) scale(0.35,0.35)"><g transform="" style="fill: rgb(0, 229, 200);">
<rect width="100" height="100"/>
</g></g><g transform="translate(140,630) scale(0.35,0.35)"><g transform="" style="fill: rgb(0, 229, 200);">
<rect width="100" height="100"/>
</g></g><g transform="translate(175,630) scale(0.35,0.35)"><g transform="" style="fill: rgb(0, 229, 200);">
<rect width="100" height="100"/>
</g></g><g transform="translate(210,630) scale(0.35,0.35)"><g transform="" style="fill: rgb(0, 229, 200);">
<g>
	<path d="M100,0H0v100h100c-0.65-0.65-1.465-1.596-2.441-2.832s-2.701-3.744-5.176-7.52s-4.688-7.553-6.641-11.328
		s-3.711-8.268-5.273-13.477S78.125,54.688,78.125,50s0.748-9.603,2.246-14.746s3.32-9.733,5.469-13.77s4.297-7.715,6.445-11.035
		s3.939-5.892,5.371-7.715L100,0z"/>
</g>
</g></g><g transform="translate(280,630) scale(0.35,0.35)"><g transform="" style="fill: rgb(0, 229, 200);">
<g>
	<path d="M0,0v100h100V0c-0.65,0.651-1.596,1.465-2.832,2.441s-3.744,2.702-7.52,5.176s-7.553,4.688-11.328,6.641
		s-8.268,3.711-13.477,5.273S54.688,21.875,50,21.875s-9.603-0.749-14.746-2.246s-9.733-3.32-13.77-5.469S13.77,9.863,10.449,7.715
		S4.557,3.776,2.734,2.344L0,0z"/>
</g>
</g></g><g transform="translate(350,630) scale(0.35,0.35)"><g transform="" style="fill: rgb(0, 229, 200);">
<g>
	<path d="M0,100h100V0H0c0.651,0.651,1.465,1.595,2.441,2.832s2.702,3.744,5.176,7.52s4.688,7.552,6.641,11.328
		s3.711,8.268,5.273,13.477S21.875,45.312,21.875,50s-0.749,9.604-2.246,14.746s-3.32,9.732-5.469,13.77S9.863,86.23,7.715,89.551
		s-3.939,5.893-5.371,7.715L0,100z"/>
</g>
</g></g><g transform="translate(385,630) scale(0.35,0.35)"><g transform="" style="fill: rgb(0, 229, 200);">
<rect width="100" height="100"/>
</g></g><g transform="translate(420,630) scale(0.35,0.35)"><g transform="" style="fill: rgb(0, 229, 200);">
<rect width="100" height="100"/>
</g></g><g transform="translate(525,630) scale(0.35,0.35)"><g transform="" style="fill: rgb(0, 229, 200);">
<rect width="100" height="100"/>
</g></g><g transform="translate(560,630) scale(0.35,0.35)"><g transform="" style="fill: rgb(0, 229, 200);">
<g>
	<path d="M100,0H0v100h100c-0.65-0.65-1.465-1.596-2.441-2.832s-2.701-3.744-5.176-7.52s-4.688-7.553-6.641-11.328
		s-3.711-8.268-5.273-13.477S78.125,54.688,78.125,50s0.748-9.603,2.246-14.746s3.32-9.733,5.469-13.77s4.297-7.715,6.445-11.035
		s3.939-5.892,5.371-7.715L100,0z"/>
</g>
</g></g><g transform="translate(700,630) scale(0.35,0.35)"><g transform="" style="fill: rgb(0, 229, 200);">
<rect width="100" height="100"/>
</g></g><g transform="translate(735,630) scale(0.35,0.35)"><g transform="" style="fill: rgb(0, 229, 200);">
<rect width="100" height="100"/>
</g></g><g transform="translate(770,630) scale(0.35,0.35)"><g transform="" style="fill: rgb(0, 229, 200);">
<rect width="100" height="100"/>
</g></g><g transform="translate(910,630) scale(0.35,0.35)"><g transform="" style="fill: rgb(0, 229, 200);">
<rect width="100" height="100"/>
</g></g><g transform="translate(140,665) scale(0.35,0.35)"><g transform="" style="fill: rgb(0, 229, 200);">
<rect width="100" height="100"/>
</g></g><g transform="translate(245,665) scale(0.35,0.35)"><g transform="" style="fill: rgb(0, 229, 200);">
<g>
	<path d="M0,100h100V0H0c0.651,0.651,1.465,1.595,2.441,2.832s2.702,3.744,5.176,7.52s4.688,7.552,6.641,11.328
		s3.711,8.268,5.273,13.477S21.875,45.312,21.875,50s-0.749,9.604-2.246,14.746s-3.32,9.732-5.469,13.77S9.863,86.23,7.715,89.551
		s-3.939,5.893-5.371,7.715L0,100z"/>
</g>
</g></g><g transform="translate(280,665) scale(0.35,0.35)"><g transform="" style="fill: rgb(0, 229, 200);">
<rect width="100" height="100"/>
</g></g><g transform="translate(420,665) scale(0.35,0.35)"><g transform="" style="fill: rgb(0, 229, 200);">
<rect width="100" height="100"/>
</g></g><g transform="translate(595,665) scale(0.35,0.35)"><g transform="" style="fill: rgb(0, 229, 200);">
<rect width="100" height="100"/>
</g></g><g transform="translate(630,665) scale(0.35,0.35)"><g transform="" style="fill: rgb(0, 229, 200);">
<rect width="100" height="100"/>
</g></g><g transform="translate(735,665) scale(0.35,0.35)"><g transform="" style="fill: rgb(0, 229, 200);">
<rect width="100" height="100"/>
</g></g><g transform="translate(840,665) scale(0.35,0.35)"><g transform="" style="fill: rgb(0, 229, 200);">
<g>
	<path d="M0,0v100h100V0c-0.65,0.651-1.596,1.465-2.832,2.441s-3.744,2.702-7.52,5.176s-7.553,4.688-11.328,6.641
		s-8.268,3.711-13.477,5.273S54.688,21.875,50,21.875s-9.603-0.749-14.746-2.246s-9.733-3.32-13.77-5.469S13.77,9.863,10.449,7.715
		S4.557,3.776,2.734,2.344L0,0z"/>
</g>
</g></g><g transform="translate(910,665) scale(0.35,0.35)"><g transform="" style="fill: rgb(0, 229, 200);">
<rect width="100" height="100"/>
</g></g><g transform="translate(35,700) scale(0.35,0.35)"><g transform="" style="fill: rgb(0, 229, 200);">
<rect width="100" height="100"/>
</g></g><g transform="translate(140,700) scale(0.35,0.35)"><g transform="" style="fill: rgb(0, 229, 200);">
<rect width="100" height="100"/>
</g></g><g transform="translate(175,700) scale(0.35,0.35)"><g transform="" style="fill: rgb(0, 229, 200);">
<rect width="100" height="100"/>
</g></g><g transform="translate(210,700) scale(0.35,0.35)"><g transform="" style="fill: rgb(0, 229, 200);">
<g>
	<path d="M100,0H0v100h100c-0.65-0.65-1.465-1.596-2.441-2.832s-2.701-3.744-5.176-7.52s-4.688-7.553-6.641-11.328
		s-3.711-8.268-5.273-13.477S78.125,54.688,78.125,50s0.748-9.603,2.246-14.746s3.32-9.733,5.469-13.77s4.297-7.715,6.445-11.035
		s3.939-5.892,5.371-7.715L100,0z"/>
</g>
</g></g><g transform="translate(280,700) scale(0.35,0.35)"><g transform="" style="fill: rgb(0, 229, 200);">
<rect width="100" height="100"/>
</g></g><g transform="translate(350,700) scale(0.35,0.35)"><g transform="" style="fill: rgb(0, 229, 200);">
<g>
	<path d="M0,100h100V0H0c0.651,0.651,1.465,1.595,2.441,2.832s2.702,3.744,5.176,7.52s4.688,7.552,6.641,11.328
		s3.711,8.268,5.273,13.477S21.875,45.312,21.875,50s-0.749,9.604-2.246,14.746s-3.32,9.732-5.469,13.77S9.863,86.23,7.715,89.551
		s-3.939,5.893-5.371,7.715L0,100z"/>
</g>
</g></g><g transform="translate(385,700) scale(0.35,0.35)"><g transform="" style="fill: rgb(0, 229, 200);">
<rect width="100" height="100"/>
</g></g><g transform="translate(420,700) scale(0.35,0.35)"><g transform="" style="fill: rgb(0, 229, 200);">
<rect width="100" height="100"/>
</g></g><g transform="translate(455,700) scale(0.35,0.35)"><g transform="" style="fill: rgb(0, 229, 200);">
<rect width="100" height="100"/>
</g></g><g transform="translate(560,700) scale(0.35,0.35)"><g transform="" style="fill: rgb(0, 229, 200);">
<rect width="100" height="100"/>
</g></g><g transform="translate(595,700) scale(0.35,0.35)"><g transform="" style="fill: rgb(0, 229, 200);">
<rect width="100" height="100"/>
</g></g><g transform="translate(630,700) scale(0.35,0.35)"><g transform="" style="fill: rgb(0, 229, 200);">
<rect width="100" height="100"/>
</g></g><g transform="translate(700,700) scale(0.35,0.35)"><g transform="" style="fill: rgb(0, 229, 200);">
<rect width="100" height="100"/>
</g></g><g transform="translate(735,700) scale(0.35,0.35)"><g transform="" style="fill: rgb(0, 229, 200);">
<rect width="100" height="100"/>
</g></g><g transform="translate(770,700) scale(0.35,0.35)"><g transform="" style="fill: rgb(0, 229, 200);">
<rect width="100" height="100"/>
</g></g><g transform="translate(805,700) scale(0.35,0.35)"><g transform="" style="fill: rgb(0, 229, 200);">
<rect width="100" height="100"/>
</g></g><g transform="translate(840,700) scale(0.35,0.35)"><g transform="" style="fill: rgb(0, 229, 200);">
<rect width="100" height="100"/>
</g></g><g transform="translate(875,700) scale(0.35,0.35)"><g transform="" style="fill: rgb(0, 229, 200);">
<rect width="100" height="100"/>
</g></g><g transform="translate(910,700) scale(0.35,0.35)"><g transform="" style="fill: rgb(0, 229, 200);">
<rect width="100" height="100"/>
</g></g><g transform="translate(280,735) scale(0.35,0.35)"><g transform="" style="fill: rgb(0, 229, 200);">
<rect width="100" height="100"/>
</g></g><g transform="translate(315,735) scale(0.35,0.35)"><g transform="" style="fill: rgb(0, 229, 200);">
<rect width="100" height="100"/>
</g></g><g transform="translate(420,735) scale(0.35,0.35)"><g transform="" style="fill: rgb(0, 229, 200);">
<rect width="100" height="100"/>
</g></g><g transform="translate(455,735) scale(0.35,0.35)"><g transform="" style="fill: rgb(0, 229, 200);">
<rect width="100" height="100"/>
</g></g><g transform="translate(490,735) scale(0.35,0.35)"><g transform="" style="fill: rgb(0, 229, 200);">
<g>
	<path d="M100,0H0v100h100c-0.65-0.65-1.465-1.596-2.441-2.832s-2.701-3.744-5.176-7.52s-4.688-7.553-6.641-11.328
		s-3.711-8.268-5.273-13.477S78.125,54.688,78.125,50s0.748-9.603,2.246-14.746s3.32-9.733,5.469-13.77s4.297-7.715,6.445-11.035
		s3.939-5.892,5.371-7.715L100,0z"/>
</g>
</g></g><g transform="translate(560,735) scale(0.35,0.35)"><g transform="" style="fill: rgb(0, 229, 200);">
<rect width="100" height="100"/>
</g></g><g transform="translate(630,735) scale(0.35,0.35)"><g transform="" style="fill: rgb(0, 229, 200);">
<rect width="100" height="100"/>
</g></g><g transform="translate(700,735) scale(0.35,0.35)"><g transform="" style="fill: rgb(0, 229, 200);">
<rect width="100" height="100"/>
</g></g><g transform="translate(840,735) scale(0.35,0.35)"><g transform="" style="fill: rgb(0, 229, 200);">
<rect width="100" height="100"/>
</g></g><g transform="translate(875,735) scale(0.35,0.35)"><g transform="" style="fill: rgb(0, 229, 200);">
<rect width="100" height="100"/>
</g></g><g transform="translate(910,735) scale(0.35,0.35)"><g transform="" style="fill: rgb(0, 229, 200);">
<rect width="100" height="100"/>
</g></g><g transform="translate(945,735) scale(0.35,0.35)"><g transform="" style="fill: rgb(0, 229, 200);">
<rect width="100" height="100"/>
</g></g><g transform="translate(980,735) scale(0.35,0.35)"><g transform="" style="fill: rgb(0, 229, 200);">
<g>
	<path d="M100,0H0v100h100c-0.65-0.65-1.465-1.596-2.441-2.832s-2.701-3.744-5.176-7.52s-4.688-7.553-6.641-11.328
		s-3.711-8.268-5.273-13.477S78.125,54.688,78.125,50s0.748-9.603,2.246-14.746s3.32-9.733,5.469-13.77s4.297-7.715,6.445-11.035
		s3.939-5.892,5.371-7.715L100,0z"/>
</g>
</g></g><g transform="translate(280,770) scale(0.35,0.35)"><g transform="" style="fill: rgb(0, 229, 200);">
<rect width="100" height="100"/>
</g></g><g transform="translate(315,770) scale(0.35,0.35)"><g transform="" style="fill: rgb(0, 229, 200);">
<rect width="100" height="100"/>
</g></g><g transform="translate(350,770) scale(0.35,0.35)"><g transform="" style="fill: rgb(0, 229, 200);">
<rect width="100" height="100"/>
</g></g><g transform="translate(385,770) scale(0.35,0.35)"><g transform="" style="fill: rgb(0, 229, 200);">
<rect width="100" height="100"/>
</g></g><g transform="translate(455,770) scale(0.35,0.35)"><g transform="" style="fill: rgb(0, 229, 200);">
<g>
	<path d="M100,100V0H0v100c0.651-0.65,1.595-1.465,2.832-2.441s3.744-2.701,7.52-5.176s7.552-4.688,11.328-6.641
		s8.268-3.711,13.477-5.273S45.312,78.125,50,78.125s9.604,0.748,14.746,2.246s9.732,3.32,13.77,5.469s7.715,4.297,11.035,6.445
		s5.893,3.939,7.715,5.371S100,99.869,100,100z"/>
</g>
</g></g><g transform="translate(560,770) scale(0.35,0.35)"><g transform="" style="fill: rgb(0, 229, 200);">
<rect width="100" height="100"/>
</g></g><g transform="translate(595,770) scale(0.35,0.35)"><g transform="" style="fill: rgb(0, 229, 200);">
<rect width="100" height="100"/>
</g></g><g transform="translate(630,770) scale(0.35,0.35)"><g transform="" style="fill: rgb(0, 229, 200);">
<rect width="100" height="100"/>
</g></g><g transform="translate(665,770) scale(0.35,0.35)"><g transform="" style="fill: rgb(0, 229, 200);">
<rect width="100" height="100"/>
</g></g><g transform="translate(700,770) scale(0.35,0.35)"><g transform="" style="fill: rgb(0, 229, 200);">
<rect width="100" height="100"/>
</g></g><g transform="translate(770,770) scale(0.35,0.35)"><g transform="" style="fill: rgb(0, 229, 200);">
<rect width="100" height="100"/>
</g></g><g transform="translate(840,770) scale(0.35,0.35)"><g transform="" style="fill: rgb(0, 229, 200);">
<rect width="100" height="100"/>
</g></g><g transform="translate(875,770) scale(0.35,0.35)"><g transform="" style="fill: rgb(0, 229, 200);">
<rect width="100" height="100"/>
</g></g><g transform="translate(945,770) scale(0.35,0.35)"><g transform="" style="fill: rgb(0, 229, 200);">
<rect width="100" height="100"/>
</g></g><g transform="translate(280,805) scale(0.35,0.35)"><g transform="" style="fill: rgb(0, 229, 200);">
<rect width="100" height="100"/>
</g></g><g transform="translate(315,805) scale(0.35,0.35)"><g transform="" style="fill: rgb(0, 229, 200);">
<rect width="100" height="100"/>
</g></g><g transform="translate(385,805) scale(0.35,0.35)"><g transform="" style="fill: rgb(0, 229, 200);">
<rect width="100" height="100"/>
</g></g><g transform="translate(420,805) scale(0.35,0.35)"><g transform="" style="fill: rgb(0, 229, 200);">
<rect width="100" height="100"/>
</g></g><g transform="translate(525,805) scale(0.35,0.35)"><g transform="" style="fill: rgb(0, 229, 200);">
<rect width="100" height="100"/>
</g></g><g transform="translate(560,805) scale(0.35,0.35)"><g transform="" style="fill: rgb(0, 229, 200);">
<rect width="100" height="100"/>
</g></g><g transform="translate(700,805) scale(0.35,0.35)"><g transform="" style="fill: rgb(0, 229, 200);">
<rect width="100" height="100"/>
</g></g><g transform="translate(840,805) scale(0.35,0.35)"><g transform="" style="fill: rgb(0, 229, 200);">
<rect width="100" height="100"/>
</g></g><g transform="translate(875,805) scale(0.35,0.35)"><g transform="" style="fill: rgb(0, 229, 200);">
<rect width="100" height="100"/>
</g></g><g transform="translate(945,805) scale(0.35,0.35)"><g transform="" style="fill: rgb(0, 229, 200);">
<rect width="100" height="100"/>
</g></g><g transform="translate(980,805) scale(0.35,0.35)"><g transform="" style="fill: rgb(0, 229, 200);">
<g>
	<path d="M100,0H0v100h100c-0.65-0.65-1.465-1.596-2.441-2.832s-2.701-3.744-5.176-7.52s-4.688-7.553-6.641-11.328
		s-3.711-8.268-5.273-13.477S78.125,54.688,78.125,50s0.748-9.603,2.246-14.746s3.32-9.733,5.469-13.77s4.297-7.715,6.445-11.035
		s3.939-5.892,5.371-7.715L100,0z"/>
</g>
</g></g><g transform="translate(420,840) scale(0.35,0.35)"><g transform="" style="fill: rgb(0, 229, 200);">
<g>
	<path d="M100,100V0H0v100c0.651-0.65,1.595-1.465,2.832-2.441s3.744-2.701,7.52-5.176s7.552-4.688,11.328-6.641
		s8.268-3.711,13.477-5.273S45.312,78.125,50,78.125s9.604,0.748,14.746,2.246s9.732,3.32,13.77,5.469s7.715,4.297,11.035,6.445
		s5.893,3.939,7.715,5.371S100,99.869,100,100z"/>
</g>
</g></g><g transform="translate(490,840) scale(0.35,0.35)"><g transform="" style="fill: rgb(0, 229, 200);">
<rect width="100" height="100"/>
</g></g><g transform="translate(525,840) scale(0.35,0.35)"><g transform="" style="fill: rgb(0, 229, 200);">
<rect width="100" height="100"/>
</g></g><g transform="translate(560,840) scale(0.35,0.35)"><g transform="" style="fill: rgb(0, 229, 200);">
<rect width="100" height="100"/>
</g></g><g transform="translate(595,840) scale(0.35,0.35)"><g transform="" style="fill: rgb(0, 229, 200);">
<rect width="100" height="100"/>
</g></g><g transform="translate(700,840) scale(0.35,0.35)"><g transform="" style="fill: rgb(0, 229, 200);">
<rect width="100" height="100"/>
</g></g><g transform="translate(735,840) scale(0.35,0.35)"><g transform="" style="fill: rgb(0, 229, 200);">
<rect width="100" height="100"/>
</g></g><g transform="translate(770,840) scale(0.35,0.35)"><g transform="" style="fill: rgb(0, 229, 200);">
<rect width="100" height="100"/>
</g></g><g transform="translate(805,840) scale(0.35,0.35)"><g transform="" style="fill: rgb(0, 229, 200);">
<rect width="100" height="100"/>
</g></g><g transform="translate(840,840) scale(0.35,0.35)"><g transform="" style="fill: rgb(0, 229, 200);">
<rect width="100" height="100"/>
</g></g><g transform="translate(910,840) scale(0.35,0.35)"><g transform="" style="fill: rgb(0, 229, 200);">
<rect width="100" height="100"/>
</g></g><g transform="translate(280,875) scale(0.35,0.35)"><g transform="" style="fill: rgb(0, 229, 200);">
<rect width="100" height="100"/>
</g></g><g transform="translate(315,875) scale(0.35,0.35)"><g transform="" style="fill: rgb(0, 229, 200);">
<g>
	<path d="M100,0H0v100h100c-0.65-0.65-1.465-1.596-2.441-2.832s-2.701-3.744-5.176-7.52s-4.688-7.553-6.641-11.328
		s-3.711-8.268-5.273-13.477S78.125,54.688,78.125,50s0.748-9.603,2.246-14.746s3.32-9.733,5.469-13.77s4.297-7.715,6.445-11.035
		s3.939-5.892,5.371-7.715L100,0z"/>
</g>
</g></g><g transform="translate(455,875) scale(0.35,0.35)"><g transform="" style="fill: rgb(0, 229, 200);">
<g>
	<path d="M0,100h100V0H0c0.651,0.651,1.465,1.595,2.441,2.832s2.702,3.744,5.176,7.52s4.688,7.552,6.641,11.328
		s3.711,8.268,5.273,13.477S21.875,45.312,21.875,50s-0.749,9.604-2.246,14.746s-3.32,9.732-5.469,13.77S9.863,86.23,7.715,89.551
		s-3.939,5.893-5.371,7.715L0,100z"/>
</g>
</g></g><g transform="translate(490,875) scale(0.35,0.35)"><g transform="" style="fill: rgb(0, 229, 200);">
<rect width="100" height="100"/>
</g></g><g transform="translate(525,875) scale(0.35,0.35)"><g transform="" style="fill: rgb(0, 229, 200);">
<rect width="100" height="100"/>
</g></g><g transform="translate(560,875) scale(0.35,0.35)"><g transform="" style="fill: rgb(0, 229, 200);">
<rect width="100" height="100"/>
</g></g><g transform="translate(595,875) scale(0.35,0.35)"><g transform="" style="fill: rgb(0, 229, 200);">
<rect width="100" height="100"/>
</g></g><g transform="translate(665,875) scale(0.35,0.35)"><g transform="" style="fill: rgb(0, 229, 200);">
<rect width="100" height="100"/>
</g></g><g transform="translate(735,875) scale(0.35,0.35)"><g transform="" style="fill: rgb(0, 229, 200);">
<g>
	<path d="M100,100V0H0v100c0.651-0.65,1.595-1.465,2.832-2.441s3.744-2.701,7.52-5.176s7.552-4.688,11.328-6.641
		s8.268-3.711,13.477-5.273S45.312,78.125,50,78.125s9.604,0.748,14.746,2.246s9.732,3.32,13.77,5.469s7.715,4.297,11.035,6.445
		s5.893,3.939,7.715,5.371S100,99.869,100,100z"/>
</g>
</g></g><g transform="translate(805,875) scale(0.35,0.35)"><g transform="" style="fill: rgb(0, 229, 200);">
<rect width="100" height="100"/>
</g></g><g transform="translate(840,875) scale(0.35,0.35)"><g transform="" style="fill: rgb(0, 229, 200);">
<rect width="100" height="100"/>
</g></g><g transform="translate(875,875) scale(0.35,0.35)"><g transform="" style="fill: rgb(0, 229, 200);">
<g>
	<path d="M100,0H0v100h100c-0.65-0.65-1.465-1.596-2.441-2.832s-2.701-3.744-5.176-7.52s-4.688-7.553-6.641-11.328
		s-3.711-8.268-5.273-13.477S78.125,54.688,78.125,50s0.748-9.603,2.246-14.746s3.32-9.733,5.469-13.77s4.297-7.715,6.445-11.035
		s3.939-5.892,5.371-7.715L100,0z"/>
</g>
</g></g><g transform="translate(980,875) scale(0.35,0.35)"><g transform="" style="fill: rgb(0, 229, 200);">
<g>
	<path d="M0,0v100h100V0c-0.65,0.651-1.596,1.465-2.832,2.441s-3.744,2.702-7.52,5.176s-7.553,4.688-11.328,6.641
		s-8.268,3.711-13.477,5.273S54.688,21.875,50,21.875s-9.603-0.749-14.746-2.246s-9.733-3.32-13.77-5.469S13.77,9.863,10.449,7.715
		S4.557,3.776,2.734,2.344L0,0z"/>
</g>
</g></g><g transform="translate(280,910) scale(0.35,0.35)"><g transform="" style="fill: rgb(0, 229, 200);">
<g>
	<path d="M100,100V0H0v100c0.651-0.65,1.595-1.465,2.832-2.441s3.744-2.701,7.52-5.176s7.552-4.688,11.328-6.641
		s8.268-3.711,13.477-5.273S45.312,78.125,50,78.125s9.604,0.748,14.746,2.246s9.732,3.32,13.77,5.469s7.715,4.297,11.035,6.445
		s5.893,3.939,7.715,5.371S100,99.869,100,100z"/>
</g>
</g></g><g transform="translate(385,910) scale(0.35,0.35)"><g transform="" style="fill: rgb(0, 229, 200);">
<g>
	<path d="M0,0v100h100V0c-0.65,0.651-1.596,1.465-2.832,2.441s-3.744,2.702-7.52,5.176s-7.553,4.688-11.328,6.641
		s-8.268,3.711-13.477,5.273S54.688,21.875,50,21.875s-9.603-0.749-14.746-2.246s-9.733-3.32-13.77-5.469S13.77,9.863,10.449,7.715
		S4.557,3.776,2.734,2.344L0,0z"/>
</g>
</g></g><g transform="translate(490,910) scale(0.35,0.35)"><g transform="" style="fill: rgb(0, 229, 200);">
<g>
	<path d="M100,100V0H0v100c0.651-0.65,1.595-1.465,2.832-2.441s3.744-2.701,7.52-5.176s7.552-4.688,11.328-6.641
		s8.268-3.711,13.477-5.273S45.312,78.125,50,78.125s9.604,0.748,14.746,2.246s9.732,3.32,13.77,5.469s7.715,4.297,11.035,6.445
		s5.893,3.939,7.715,5.371S100,99.869,100,100z"/>
</g>
</g></g><g transform="translate(560,910) scale(0.35,0.35)"><g transform="" style="fill: rgb(0, 229, 200);">
<g>
	<path d="M100,100V0H0v100c0.651-0.65,1.595-1.465,2.832-2.441s3.744-2.701,7.52-5.176s7.552-4.688,11.328-6.641
		s8.268-3.711,13.477-5.273S45.312,78.125,50,78.125s9.604,0.748,14.746,2.246s9.732,3.32,13.77,5.469s7.715,4.297,11.035,6.445
		s5.893,3.939,7.715,5.371S100,99.869,100,100z"/>
</g>
</g></g><g transform="translate(630,910) scale(0.35,0.35)"><g transform="" style="fill: rgb(0, 229, 200);">
<rect width="100" height="100"/>
</g></g><g transform="translate(700,910) scale(0.35,0.35)"><g transform="" style="fill: rgb(0, 229, 200);">
<g>
	<path d="M0,0v100h100V0c-0.65,0.651-1.596,1.465-2.832,2.441s-3.744,2.702-7.52,5.176s-7.553,4.688-11.328,6.641
		s-8.268,3.711-13.477,5.273S54.688,21.875,50,21.875s-9.603-0.749-14.746-2.246s-9.733-3.32-13.77-5.469S13.77,9.863,10.449,7.715
		S4.557,3.776,2.734,2.344L0,0z"/>
</g>
</g></g><g transform="translate(770,910) scale(0.35,0.35)"><g transform="" style="fill: rgb(0, 229, 200);">
<rect width="100" height="100"/>
</g></g><g transform="translate(910,910) scale(0.35,0.35)"><g transform="" style="fill: rgb(0, 229, 200);">
<rect width="100" height="100"/>
</g></g><g transform="translate(980,910) scale(0.35,0.35)"><g transform="" style="fill: rgb(0, 229, 200);">
<g>
	<path d="M100,100V0H0v100c0.651-0.65,1.595-1.465,2.832-2.441s3.744-2.701,7.52-5.176s7.552-4.688,11.328-6.641
		s8.268-3.711,13.477-5.273S45.312,78.125,50,78.125s9.604,0.748,14.746,2.246s9.732,3.32,13.77,5.469s7.715,4.297,11.035,6.445
		s5.893,3.939,7.715,5.371S100,99.869,100,100z"/>
</g>
</g></g><g transform="translate(350,945) scale(0.35,0.35)"><g transform="" style="fill: rgb(0, 229, 200);">
<rect width="100" height="100"/>
</g></g><g transform="translate(385,945) scale(0.35,0.35)"><g transform="" style="fill: rgb(0, 229, 200);">
<rect width="100" height="100"/>
</g></g><g transform="translate(420,945) scale(0.35,0.35)"><g transform="" style="fill: rgb(0, 229, 200);">
<g>
	<path d="M100,0H0v100h100c-0.65-0.65-1.465-1.596-2.441-2.832s-2.701-3.744-5.176-7.52s-4.688-7.553-6.641-11.328
		s-3.711-8.268-5.273-13.477S78.125,54.688,78.125,50s0.748-9.603,2.246-14.746s3.32-9.733,5.469-13.77s4.297-7.715,6.445-11.035
		s3.939-5.892,5.371-7.715L100,0z"/>
</g>
</g></g><g transform="translate(700,945) scale(0.35,0.35)"><g transform="" style="fill: rgb(0, 229, 200);">
<rect width="100" height="100"/>
</g></g><g transform="translate(735,945) scale(0.35,0.35)"><g transform="" style="fill: rgb(0, 229, 200);">
<rect width="100" height="100"/>
</g></g><g transform="translate(840,945) scale(0.35,0.35)"><g transform="" style="fill: rgb(0, 229, 200);">
<g>
	<path d="M0,100h100V0H0c0.651,0.651,1.465,1.595,2.441,2.832s2.702,3.744,5.176,7.52s4.688,7.552,6.641,11.328
		s3.711,8.268,5.273,13.477S21.875,45.312,21.875,50s-0.749,9.604-2.246,14.746s-3.32,9.732-5.469,13.77S9.863,86.23,7.715,89.551
		s-3.939,5.893-5.371,7.715L0,100z"/>
</g>
</g></g><g transform="translate(875,945) scale(0.35,0.35)"><g transform="" style="fill: rgb(0, 229, 200);">
<rect width="100" height="100"/>
</g></g><g transform="translate(945,945) scale(0.35,0.35)"><g transform="" style="fill: rgb(0, 229, 200);">
<g>
	<path d="M0,0v100h100V0c-0.65,0.651-1.596,1.465-2.832,2.441s-3.744,2.702-7.52,5.176s-7.553,4.688-11.328,6.641
		s-8.268,3.711-13.477,5.273S54.688,21.875,50,21.875s-9.603-0.749-14.746-2.246s-9.733-3.32-13.77-5.469S13.77,9.863,10.449,7.715
		S4.557,3.776,2.734,2.344L0,0z"/>
</g>
</g></g><g transform="translate(280,980) scale(0.35,0.35)"><g transform="" style="fill: rgb(0, 229, 200);">
<g>
	<path d="M0,100h100V0H0c0.651,0.651,1.465,1.595,2.441,2.832s2.702,3.744,5.176,7.52s4.688,7.552,6.641,11.328
		s3.711,8.268,5.273,13.477S21.875,45.312,21.875,50s-0.749,9.604-2.246,14.746s-3.32,9.732-5.469,13.77S9.863,86.23,7.715,89.551
		s-3.939,5.893-5.371,7.715L0,100z"/>
</g>
</g></g><g transform="translate(315,980) scale(0.35,0.35)"><g transform="" style="fill: rgb(0, 229, 200);">
<rect width="100" height="100"/>
</g></g><g transform="translate(350,980) scale(0.35,0.35)"><g transform="" style="fill: rgb(0, 229, 200);">
<rect width="100" height="100"/>
</g></g><g transform="translate(455,980) scale(0.35,0.35)"><g transform="" style="fill: rgb(0, 229, 200);">
<rect width="100" height="100"/>
</g></g><g transform="translate(560,980) scale(0.35,0.35)"><g transform="" style="fill: rgb(0, 229, 200);">
<rect width="100" height="100"/>
</g></g><g transform="translate(630,980) scale(0.35,0.35)"><g transform="" style="fill: rgb(0, 229, 200);">
<g>
	<path d="M0,100h100V0H0c0.651,0.651,1.465,1.595,2.441,2.832s2.702,3.744,5.176,7.52s4.688,7.552,6.641,11.328
		s3.711,8.268,5.273,13.477S21.875,45.312,21.875,50s-0.749,9.604-2.246,14.746s-3.32,9.732-5.469,13.77S9.863,86.23,7.715,89.551
		s-3.939,5.893-5.371,7.715L0,100z"/>
</g>
</g></g><g transform="translate(665,980) scale(0.35,0.35)"><g transform="" style="fill: rgb(0, 229, 200);">
<rect width="100" height="100"/>
</g></g><g transform="translate(700,980) scale(0.35,0.35)"><g transform="" style="fill: rgb(0, 229, 200);">
<rect width="100" height="100"/>
</g></g><g transform="translate(735,980) scale(0.35,0.35)"><g transform="" style="fill: rgb(0, 229, 200);">
<rect width="100" height="100"/>
</g></g><g transform="translate(770,980) scale(0.35,0.35)"><g transform="" style="fill: rgb(0, 229, 200);">
<g>
	<path d="M100,0H0v100h100c-0.65-0.65-1.465-1.596-2.441-2.832s-2.701-3.744-5.176-7.52s-4.688-7.553-6.641-11.328
		s-3.711-8.268-5.273-13.477S78.125,54.688,78.125,50s0.748-9.603,2.246-14.746s3.32-9.733,5.469-13.77s4.297-7.715,6.445-11.035
		s3.939-5.892,5.371-7.715L100,0z"/>
</g>
</g></g><g transform="translate(875,980) scale(0.35,0.35)"><g transform="" style="fill: rgb(0, 229, 200);">
<g>
	<path d="M100,100V0H0v100c0.651-0.65,1.595-1.465,2.832-2.441s3.744-2.701,7.52-5.176s7.552-4.688,11.328-6.641
		s8.268-3.711,13.477-5.273S45.312,78.125,50,78.125s9.604,0.748,14.746,2.246s9.732,3.32,13.77,5.469s7.715,4.297,11.035,6.445
		s5.893,3.939,7.715,5.371S100,99.869,100,100z"/>
</g>
</g></g><g transform="translate(945,980) scale(0.35,0.35)"><g transform="" style="fill: rgb(0, 229, 200);">
<g>
	<path d="M100,100V0H0v100c0.651-0.65,1.595-1.465,2.832-2.441s3.744-2.701,7.52-5.176s7.552-4.688,11.328-6.641
		s8.268-3.711,13.477-5.273S45.312,78.125,50,78.125s9.604,0.748,14.746,2.246s9.732,3.32,13.77,5.469s7.715,4.297,11.035,6.445
		s5.893,3.939,7.715,5.371S100,99.869,100,100z"/>
</g>
</g></g><g transform="translate(0,0) scale(2.45, 2.45)"><g transform=" translate(100, 0) scale(-1,1) " style="fill: rgb(0, 229, 200);">
<g>
	<path style="fill:none;" d="M85,66.221V33.75C85,23.411,76.414,15,65.859,15H34.14C23.586,15,15,23.411,15,33.75v51.246
		l50.855-0.016C76.414,84.98,85,76.564,85,66.221z"/>
	<path d="M100,66.221V33.75C100,15.141,84.68,0,65.859,0H34.14C15.32,0,0,15.141,0,33.75V100l65.859-0.02
		C84.68,99.98,100,84.84,100,66.221z M85,66.221c0,10.344-8.586,18.76-19.145,18.76L15,84.996V33.75C15,23.411,23.586,15,34.14,15
		h31.719C76.414,15,85,23.411,85,33.75V66.221z"/>
</g>
</g></g><g transform="translate(770,0) scale(2.45, 2.45)"><g transform="" style="fill: rgb(0, 229, 200);">
<g>
	<path style="fill:none;" d="M85,66.221V33.75C85,23.411,76.414,15,65.859,15H34.14C23.586,15,15,23.411,15,33.75v51.246
		l50.855-0.016C76.414,84.98,85,76.564,85,66.221z"/>
	<path d="M100,66.221V33.75C100,15.141,84.68,0,65.859,0H34.14C15.32,0,0,15.141,0,33.75V100l65.859-0.02
		C84.68,99.98,100,84.84,100,66.221z M85,66.221c0,10.344-8.586,18.76-19.145,18.76L15,84.996V33.75C15,23.411,23.586,15,34.14,15
		h31.719C76.414,15,85,23.411,85,33.75V66.221z"/>
</g>
</g></g><g transform="translate(0,770) scale(2.45, 2.45)"><g transform=" translate(100, 0) scale(-1,1)  translate(0,100) scale(1,-1) " style="fill: rgb(0, 229, 200);">
<g>
	<path style="fill:none;" d="M85,66.221V33.75C85,23.411,76.414,15,65.859,15H34.14C23.586,15,15,23.411,15,33.75v51.246
		l50.855-0.016C76.414,84.98,85,76.564,85,66.221z"/>
	<path d="M100,66.221V33.75C100,15.141,84.68,0,65.859,0H34.14C15.32,0,0,15.141,0,33.75V100l65.859-0.02
		C84.68,99.98,100,84.84,100,66.221z M85,66.221c0,10.344-8.586,18.76-19.145,18.76L15,84.996V33.75C15,23.411,23.586,15,34.14,15
		h31.719C76.414,15,85,23.411,85,33.75V66.221z"/>
</g>
</g></g><g transform="translate(70,70) scale(1.05, 1.05)"><g transform="" style="fill: rgb(0, 229, 200);">
<rect width="100" height="100"/>
</g></g><g transform="translate(840,70) scale(1.05, 1.05)"><g transform="" style="fill: rgb(0, 229, 200);">
<rect width="100" height="100"/>
</g></g><g transform="translate(70,840) scale(1.05, 1.05)"><g transform="" style="fill: rgb(0, 229, 200);">
<rect width="100" height="100"/>
</g></g></g></svg>